<svg data-v-0dd9719b="" version="1.0" xmlns="http://www.w3.org/2000/svg" xmlns:xlink="http://www.w3.org/1999/xlink" width="100%" height="100%" viewBox="0 0 340.000000 250.000000" preserveAspectRatio="xMidYMid meet" color-interpolation-filters="sRGB" style="margin: auto;"> <rect data-v-0dd9719b="" x="0" y="0" width="100%" height="100%" fill="#fff" fill-opacity="1" class="background"></rect> <rect data-v-0dd9719b="" x="0" y="0" width="100%" height="100%" fill="url(#watermark)" fill-opacity="1" class="watermarklayer"></rect> <g data-v-0dd9719b="" fill="#40459c" class="icon-text-wrapper icon-svg-group iconsvg" transform="translate(80.68499755859375,74.94000244140625)"><g class="iconsvg-imagesvg" transform="translate(59.31500244140625,0)"><g><rect fill="#40459c" fill-opacity="0" stroke-width="2" x="0" y="0" width="60" height="60" class="image-rect"></rect> <svg x="0" y="0" width="60" height="60" filtersec="colorsb3218824781" class="image-svg-svg primary" style="overflow: visible;"><svg xmlns="http://www.w3.org/2000/svg" viewBox="0 0 56.690006256103516 56.69000244140625"><g><g><path fill="none" d="M28.35 28.35h12.74-12.74z"></path><path d="M43.93 28.35h12.76A28.34 28.34 0 0 0 28.35 0v12.76a15.6 15.6 0 0 1 15.58 15.59z" fill="#8a33c2"></path><path d="M41.09 28.35A12.76 12.76 0 0 0 28.35 15.6v12.75z" fill="#8a33c2"></path><path d="M43.93 28.35v14.17a1.42 1.42 0 0 1-2.84 0V28.35H28.35v28.34h28.34V28.35z" fill="#efc65f"></path><path d="M12.75 14.18a1.42 1.42 0 0 1 1.42-1.42h14.18V0H0v28.35h12.75z" fill="#f93fd2"></path><path fill="#f93fd2" d="M28.35 15.6h-.01l-12.75-.01v12.76h12.76V15.6z"></path><path d="M15.59 28.35v14.17a1.42 1.42 0 0 1-2.84 0V28.35H0v28.34h28.35V28.35z" fill="#40459c"></path></g></g></svg></svg> <!----></g></g> <g transform="translate(0,67)"><g data-gra="path-name" fill-rule="" class="tp-name iconsvg-namesvg"><g transform="scale(1)"><g><path d="M23.81-24.33L23.81-24.33 23.81-23.64Q22.71-23.5 22.16-23.07 21.61-22.64 21.42-21.71 21.23-20.79 21.23-19.1L21.23-19.1 21.23 0.07Q20.82 0.03 20.39 0.03 19.96 0.03 19.48 0.07L19.48 0.07 4.57-18.83 4.57-5.63Q4.57-3.74 4.78-2.73 4.98-1.72 5.69-1.29 6.39-0.86 7.9-0.69L7.9-0.69 7.9 0Q7.25-0.07 6.18-0.09 5.12-0.1 4.19-0.1L4.19-0.1Q3.4-0.1 2.58-0.09 1.75-0.07 1.2 0L1.2 0 1.2-0.69Q2.3-0.86 2.85-1.27 3.4-1.68 3.59-2.63 3.78-3.57 3.78-5.22L3.78-5.22 3.78-20.68Q3.78-21.95 3.59-22.56 3.4-23.16 2.83-23.38 2.27-23.6 1.2-23.64L1.2-23.64 1.2-24.33Q1.75-24.29 2.58-24.26 3.4-24.22 4.19-24.22L4.19-24.22Q5.02-24.22 5.77-24.26 6.53-24.29 7.15-24.33L7.15-24.33 20.44-7.94 20.44-18.69Q20.44-20.58 20.24-21.59 20.03-22.61 19.33-23.05 18.62-23.5 17.11-23.64L17.11-23.64 17.11-24.33Q17.76-24.29 18.83-24.26 19.89-24.22 20.82-24.22L20.82-24.22Q21.65-24.22 22.45-24.26 23.26-24.29 23.81-24.33ZM29.48 0.24L29.48 0.24Q27.18 0.24 26.15-0.96 25.12-2.16 25.12-3.88L25.12-3.88Q25.12-5.36 25.79-6.29 26.46-7.22 27.52-7.82 28.59-8.42 29.77-8.81 30.96-9.21 32.04-9.6 33.12-10 33.79-10.51 34.46-11.03 34.46-11.82L34.46-11.82 34.46-14.5Q34.46-15.39 34.17-16.1 33.88-16.8 33.28-17.18 32.67-17.56 31.71-17.56L31.71-17.56Q31.03-17.56 30.34-17.37 29.65-17.18 29.2-16.73L29.2-16.73Q30.17-16.39 30.7-15.68 31.23-14.98 31.23-14.09L31.23-14.09Q31.23-12.92 30.42-12.23 29.62-11.54 28.52-11.54L28.52-11.54Q27.28-11.54 26.64-12.32 26.01-13.09 26.01-14.19L26.01-14.19Q26.01-15.19 26.51-15.84 27.01-16.49 27.9-17.08L27.9-17.08Q28.86-17.63 30.22-17.93 31.57-18.24 33.16-18.24L33.16-18.24Q34.74-18.24 36.01-17.92 37.28-17.59 38.14-16.73L38.14-16.73Q38.93-15.94 39.17-14.79 39.41-13.64 39.41-11.89L39.41-11.89 39.41-2.54Q39.41-1.72 39.58-1.37 39.75-1.03 40.16-1.03L40.16-1.03Q40.51-1.03 40.82-1.2 41.13-1.37 41.4-1.61L41.4-1.61 41.74-1.03Q41.02-0.41 40.08-0.09 39.13 0.24 37.97 0.24L37.97 0.24Q35.9 0.24 35.23-0.6 34.56-1.44 34.53-2.54L34.53-2.54Q33.67-1.13 32.42-0.45 31.16 0.24 29.48 0.24ZM32.12-1.96L32.12-1.96Q32.78-1.96 33.34-2.27 33.91-2.58 34.46-3.37L34.46-3.37 34.46-10.41Q34.05-9.72 33.31-9.26 32.57-8.8 31.8-8.26 31.03-7.73 30.51-6.91 29.99-6.08 29.99-4.71L29.99-4.71Q29.99-3.23 30.61-2.59 31.23-1.96 32.12-1.96ZM49.72-26.9L49.72-26.9 49.72-3.2Q49.72-1.75 50.18-1.24 50.64-0.72 51.78-0.72L51.78-0.72 51.78 0Q51.12-0.03 49.87-0.09 48.62-0.14 47.31-0.14L47.31-0.14Q45.97-0.14 44.61-0.09 43.26-0.03 42.57 0L42.57 0 42.57-0.72Q43.77-0.72 44.27-1.24 44.77-1.75 44.77-3.2L44.77-3.2 44.77-22.78Q44.77-24.33 44.3-25.06 43.84-25.8 42.57-25.8L42.57-25.8 42.57-26.52Q43.67-26.42 44.7-26.42L44.7-26.42Q46.11-26.42 47.38-26.54 48.65-26.66 49.72-26.9ZM60.92-17.76L60.92-17.76 60.92-17.08Q59.85-16.87 58.79-16.18 57.72-15.5 56.62-14.43L56.62-14.43 53.98-11.68 54.32-12.33 60.19-2.51Q60.57-1.89 60.98-1.41 61.4-0.93 61.98-0.72L61.98-0.72 61.98 0Q61.47-0.03 60.44-0.09 59.4-0.14 58.37-0.14L58.37-0.14Q57.1-0.14 55.83-0.09 54.56-0.03 53.94 0L53.94 0 53.94-0.72Q54.63-0.72 54.87-1.05 55.11-1.37 54.8-1.89L54.8-1.89 51.4-8.04Q50.99-8.69 50.59-8.88 50.2-9.07 49.54-9.1L49.54-9.1 49.54-9.76Q50.27-9.83 50.8-10 51.33-10.17 51.78-10.65L51.78-10.65 54.39-13.19Q55.56-14.29 55.56-15.15 55.56-16.01 54.82-16.53 54.08-17.04 52.88-17.08L52.88-17.08 52.88-17.76Q53.84-17.73 54.97-17.69 56.11-17.66 56.9-17.66L56.9-17.66Q57.58-17.66 58.36-17.68 59.13-17.69 59.82-17.71 60.5-17.73 60.92-17.76ZM79.95-18.14L79.95-18.14 79.95-3.74Q79.95-2.2 80.43-1.46 80.91-0.72 82.15-0.72L82.15-0.72 82.15 0Q81.08-0.1 80.02-0.1L80.02-0.1Q78.58-0.1 77.34 0 76.1 0.1 75 0.38L75 0.38 75-2.71Q74.18-1 72.72-0.26 71.26 0.48 69.47 0.48L69.47 0.48Q68.03 0.48 67.13 0.1 66.24-0.27 65.73-0.86L65.73-0.86Q65.14-1.51 64.9-2.58 64.66-3.64 64.66-5.33L64.66-5.33 64.66-14.02Q64.66-15.56 64.2-16.3 63.73-17.04 62.46-17.04L62.46-17.04 62.46-17.76Q63.56-17.66 64.59-17.66L64.59-17.66Q66.04-17.66 67.29-17.78 68.54-17.9 69.61-18.14L69.61-18.14 69.61-3.92Q69.61-3.06 69.76-2.41 69.92-1.75 70.36-1.39 70.81-1.03 71.67-1.03L71.67-1.03Q73.04-1.03 74.02-2.18 75-3.33 75-5.02L75-5.02 75-14.02Q75-15.56 74.54-16.3 74.08-17.04 72.8-17.04L72.8-17.04 72.8-17.76Q73.9-17.66 74.93-17.66L74.93-17.66Q76.38-17.66 77.63-17.78 78.89-17.9 79.95-18.14ZM90.67-18.14L90.67-18.14 90.67 2.82Q90.67 4.43 91.49 4.96 92.32 5.5 93.76 5.5L93.76 5.5 93.76 6.22Q92.87 6.18 91.31 6.13 89.74 6.08 87.99 6.08L87.99 6.08Q86.72 6.08 85.5 6.13 84.28 6.18 83.66 6.22L83.66 6.22 83.66 5.5Q84.79 5.5 85.26 5.02 85.72 4.54 85.72 3.16L85.72 3.16 85.72-14.02Q85.72-15.56 85.24-16.3 84.76-17.04 83.52-17.04L83.52-17.04 83.52-17.76Q84.62-17.66 85.65-17.66L85.65-17.66Q87.06-17.66 88.33-17.78 89.6-17.9 90.67-18.14ZM96-18.24L96-18.24Q98.61-18.24 100.38-16.11 102.15-13.98 102.15-9.69L102.15-9.69Q102.15-6.36 101.15-4.09 100.15-1.82 98.38-0.67 96.61 0.48 94.17 0.48L94.17 0.48Q92.83 0.48 91.74 0.02 90.64-0.45 90.05-1.31L90.05-1.31 90.4-1.75Q90.74-1.13 91.37-0.79 92.01-0.45 92.83-0.45L92.83-0.45Q94.38-0.45 95.27-1.49 96.17-2.54 96.56-4.45 96.96-6.36 96.96-9L96.96-9Q96.96-11.96 96.58-13.64 96.2-15.32 95.55-16.05 94.9-16.77 93.97-16.77L93.97-16.77Q92.73-16.77 91.72-15.8 90.7-14.84 90.57-13.06L90.57-13.06 90.4-14.26Q91.01-16.22 92.51-17.23 94-18.24 96-18.24ZM113.14-18.24L113.14-18.24Q116.16-18.24 117.88-16.46 119.6-14.67 119.6-10.62L119.6-10.62 108.3-10.62 108.23-11.27 115.27-11.27Q115.3-12.95 115.06-14.38 114.82-15.8 114.31-16.66 113.79-17.52 112.93-17.52L112.93-17.52Q111.73-17.52 110.89-16.01 110.05-14.5 109.88-10.99L109.88-10.99 109.98-10.79Q109.94-10.38 109.93-9.93 109.91-9.48 109.91-9L109.91-9Q109.91-6.63 110.58-5.15 111.25-3.68 112.28-3.01 113.31-2.34 114.38-2.34L114.38-2.34Q115.41-2.34 116.63-2.85 117.85-3.37 118.91-5.08L118.91-5.08 119.53-4.88Q119.12-3.57 118.22-2.34 117.33-1.1 115.96-0.31 114.58 0.48 112.66 0.48L112.66 0.48Q110.32 0.48 108.54-0.52 106.75-1.51 105.74-3.54 104.72-5.57 104.72-8.69L104.72-8.69Q104.72-11.89 105.8-14.02 106.89-16.15 108.79-17.2 110.7-18.24 113.14-18.24ZM134.17-18.24L134.17-18.24Q135.61-18.24 136.52-17.88 137.43-17.52 137.95-16.9L137.95-16.9Q138.5-16.25 138.75-15.22 139.01-14.19 139.01-12.44L139.01-12.44 139.01-3.2Q139.01-1.75 139.51-1.24 140.01-0.72 141.21-0.72L141.21-0.72 141.21 0Q140.56-0.03 139.25-0.09 137.95-0.14 136.67-0.14L136.67-0.14Q135.37-0.14 134.12-0.09 132.86-0.03 132.21 0L132.21 0 132.21-0.72Q133.24-0.72 133.65-1.24 134.06-1.75 134.06-3.2L134.06-3.2 134.06-13.88Q134.06-14.74 133.89-15.38 133.72-16.01 133.27-16.37 132.83-16.73 131.93-16.73L131.93-16.73Q130.49-16.73 129.51-15.6 128.53-14.46 128.53-12.75L128.53-12.75 128.53-3.2Q128.53-1.75 128.96-1.24 129.39-0.72 130.39-0.72L130.39-0.72 130.39 0Q129.77-0.03 128.58-0.09 127.4-0.14 126.13-0.14L126.13-0.14Q124.82-0.14 123.45-0.09 122.07-0.03 121.39 0L121.39 0 121.39-0.72Q122.59-0.72 123.09-1.24 123.58-1.75 123.58-3.2L123.58-3.2 123.58-14.02Q123.58-15.56 123.12-16.3 122.66-17.04 121.39-17.04L121.39-17.04 121.39-17.76Q122.49-17.66 123.52-17.66L123.52-17.66Q124.96-17.66 126.21-17.78 127.47-17.9 128.53-18.14L128.53-18.14 128.53-15.05Q129.39-16.8 130.87-17.52 132.35-18.24 134.17-18.24ZM159.39-26.9L159.39-26.9 159.39-3.78Q159.39-2.23 159.87-1.49 160.35-0.76 161.58-0.76L161.58-0.76 161.58-0.03Q160.52-0.14 159.45-0.14L159.45-0.14Q158.01-0.14 156.76-0.03 155.5 0.07 154.44 0.34L154.44 0.34 154.44-22.78Q154.44-24.33 153.97-25.06 153.51-25.8 152.24-25.8L152.24-25.8 152.24-26.52Q153.34-26.42 154.37-26.42L154.37-26.42Q155.78-26.42 157.05-26.54 158.32-26.66 159.39-26.9ZM150.62-18.24L150.62-18.24Q152.14-18.24 153.29-17.75 154.44-17.25 155.09-16.08L155.09-16.08 154.68-15.7Q154.23-16.53 153.49-16.89 152.75-17.25 151.93-17.25L151.93-17.25Q150.18-17.25 149.15-15.2 148.12-13.16 148.15-8.9L148.15-8.9Q148.15-5.98 148.55-4.24 148.94-2.51 149.68-1.75 150.42-1 151.38-1L151.38-1Q152.55-1 153.48-1.92 154.4-2.85 154.47-4.43L154.47-4.43 154.64-3.23Q154.13-1.41 152.98-0.46 151.83 0.48 149.97 0.48L149.97 0.48Q147.94 0.48 146.35-0.52 144.75-1.51 143.86-3.59 142.96-5.67 142.96-8.97L142.96-8.97Q142.96-12.09 143.96-14.14 144.96-16.18 146.69-17.21 148.43-18.24 150.62-18.24ZM167.56 0.24L167.56 0.24Q165.26 0.24 164.23-0.96 163.2-2.16 163.2-3.88L163.2-3.88Q163.2-5.36 163.87-6.29 164.54-7.22 165.6-7.82 166.67-8.42 167.85-8.81 169.04-9.21 170.12-9.6 171.2-10 171.87-10.51 172.54-11.03 172.54-11.82L172.54-11.82 172.54-14.5Q172.54-15.39 172.25-16.1 171.96-16.8 171.36-17.18 170.76-17.56 169.8-17.56L169.8-17.56Q169.11-17.56 168.42-17.37 167.73-17.18 167.29-16.73L167.29-16.73Q168.25-16.39 168.78-15.68 169.31-14.98 169.31-14.09L169.31-14.09Q169.31-12.92 168.51-12.23 167.7-11.54 166.6-11.54L166.6-11.54Q165.36-11.54 164.73-12.32 164.09-13.09 164.09-14.19L164.09-14.19Q164.09-15.19 164.59-15.84 165.09-16.49 165.98-17.08L165.98-17.08Q166.94-17.63 168.3-17.93 169.66-18.24 171.24-18.24L171.24-18.24Q172.82-18.24 174.09-17.92 175.36-17.59 176.22-16.73L176.22-16.73Q177.01-15.94 177.25-14.79 177.49-13.64 177.49-11.89L177.49-11.89 177.49-2.54Q177.49-1.72 177.66-1.37 177.84-1.03 178.25-1.03L178.25-1.03Q178.59-1.03 178.9-1.2 179.21-1.37 179.48-1.61L179.48-1.61 179.83-1.03Q179.11-0.41 178.16-0.09 177.22 0.24 176.05 0.24L176.05 0.24Q173.99 0.24 173.32-0.6 172.65-1.44 172.61-2.54L172.61-2.54Q171.75-1.13 170.5-0.45 169.25 0.24 167.56 0.24ZM170.21-1.96L170.21-1.96Q170.86-1.96 171.43-2.27 171.99-2.58 172.54-3.37L172.54-3.37 172.54-10.41Q172.13-9.72 171.39-9.26 170.65-8.8 169.88-8.26 169.11-7.73 168.59-6.91 168.08-6.08 168.08-4.71L168.08-4.71Q168.08-3.23 168.7-2.59 169.31-1.96 170.21-1.96Z" transform="translate(-1.2000000476837158, 26.899999618530273)"></path></g> <!----> <!----> <!----> <!----> <!----> <!----> <!----></g></g> <!----></g></g><defs v-gra="od"></defs></svg>